<?xml version="1.0" encoding="utf-8"?>
<!-- Generator: Adobe Illustrator 16.0.0, SVG Export Plug-In . SVG Version: 6.00 Build 0)  -->
<!DOCTYPE svg PUBLIC "-//W3C//DTD SVG 1.1//EN" "http://www.w3.org/Graphics/SVG/1.1/DTD/svg11.dtd">
<svg version="1.1" id="Layer_1" xmlns="http://www.w3.org/2000/svg" xmlns:xlink="http://www.w3.org/1999/xlink" x="0px" y="0px"
	 width="213.312px" height="60.666px" viewBox="0 0 213.312 60.666" enable-background="new 0 0 213.312 60.666"
	 xml:space="preserve">
<g>
	<path fill="#418CBD" d="M129.81,50.761c-0.234,0.207-0.494,0.361-0.782,0.463s-0.635,0.153-1.04,0.153h-0.826l-0.492,2.273h-0.762
		l1.309-6.068h1.492c0.346,0,0.63,0.032,0.856,0.098c0.226,0.065,0.411,0.159,0.556,0.281c0.15,0.123,0.264,0.271,0.342,0.446
		c0.079,0.175,0.118,0.387,0.118,0.634c0,0.332-0.066,0.646-0.201,0.943S130.054,50.54,129.81,50.761 M129.773,49.18
		c0-0.139-0.021-0.268-0.065-0.387c-0.043-0.119-0.109-0.218-0.201-0.293c-0.108-0.09-0.237-0.154-0.386-0.194
		c-0.147-0.04-0.341-0.059-0.579-0.059h-0.703l-0.535,2.474h0.677c0.304,0,0.556-0.03,0.758-0.09
		c0.201-0.061,0.375-0.155,0.521-0.284c0.173-0.155,0.302-0.33,0.387-0.523C129.731,49.631,129.773,49.416,129.773,49.18"/>
	<path fill="#418CBD" d="M134.06,49.905h-0.038c-0.101-0.026-0.195-0.047-0.283-0.059c-0.088-0.013-0.193-0.02-0.317-0.02
		c-0.238,0-0.476,0.058-0.709,0.174c-0.235,0.115-0.46,0.255-0.675,0.416l-0.69,3.233h-0.723l0.971-4.552h0.723l-0.143,0.672
		c0.337-0.252,0.623-0.428,0.857-0.524c0.235-0.1,0.462-0.147,0.677-0.147c0.125,0,0.215,0.003,0.271,0.009
		c0.056,0.008,0.137,0.021,0.244,0.039L134.06,49.905z"/>
	<path fill="#418CBD" d="M138.204,50.709c0,0.406-0.058,0.798-0.175,1.174c-0.117,0.373-0.282,0.7-0.495,0.978
		c-0.221,0.287-0.476,0.513-0.765,0.674c-0.29,0.161-0.628,0.242-1.014,0.242c-0.506,0-0.899-0.153-1.183-0.462
		s-0.425-0.734-0.425-1.278c0-0.407,0.058-0.796,0.174-1.165c0.115-0.369,0.282-0.698,0.5-0.986c0.211-0.277,0.47-0.498,0.775-0.664
		c0.307-0.165,0.641-0.249,1.004-0.249c0.49,0,0.88,0.15,1.169,0.448C138.061,49.72,138.204,50.148,138.204,50.709 M137.039,52.428
		c0.138-0.218,0.242-0.469,0.314-0.755c0.073-0.283,0.108-0.586,0.108-0.903c0-0.38-0.085-0.669-0.255-0.863
		c-0.171-0.196-0.41-0.295-0.72-0.295c-0.247,0-0.468,0.063-0.663,0.189c-0.196,0.126-0.364,0.3-0.506,0.521
		c-0.138,0.215-0.243,0.465-0.316,0.755c-0.073,0.287-0.11,0.586-0.11,0.896c0,0.375,0.085,0.663,0.255,0.863
		c0.17,0.202,0.411,0.302,0.724,0.302c0.244,0,0.464-0.063,0.662-0.188S136.899,52.65,137.039,52.428"/>
	<path fill="#418CBD" d="M143.246,49.098l-0.866,4.047c-0.167,0.772-0.442,1.337-0.823,1.694c-0.382,0.356-0.913,0.535-1.592,0.535
		c-0.218,0-0.438-0.018-0.66-0.053c-0.222-0.036-0.426-0.083-0.611-0.143l0.164-0.762h0.038c0.143,0.067,0.334,0.132,0.575,0.196
		c0.241,0.062,0.469,0.093,0.682,0.093c0.241,0,0.446-0.033,0.615-0.1s0.309-0.157,0.417-0.271c0.106-0.115,0.194-0.248,0.262-0.398
		c0.066-0.15,0.119-0.32,0.157-0.507l0.086-0.399c-0.257,0.184-0.481,0.322-0.678,0.413c-0.195,0.091-0.445,0.137-0.749,0.137
		c-0.414,0-0.738-0.135-0.971-0.405c-0.233-0.271-0.351-0.652-0.351-1.143c0-0.395,0.061-0.777,0.182-1.148
		c0.12-0.37,0.289-0.7,0.505-0.988c0.21-0.278,0.464-0.503,0.76-0.672c0.296-0.168,0.612-0.253,0.95-0.253
		c0.244,0,0.462,0.03,0.654,0.09c0.191,0.061,0.358,0.138,0.501,0.232l0.089-0.196H143.246z M142.358,49.918
		c-0.162-0.091-0.33-0.16-0.502-0.21c-0.171-0.05-0.345-0.077-0.521-0.077c-0.249,0-0.477,0.062-0.681,0.184
		c-0.204,0.12-0.382,0.288-0.528,0.502c-0.14,0.201-0.249,0.444-0.326,0.728c-0.078,0.284-0.116,0.567-0.116,0.85
		c0,0.321,0.068,0.57,0.205,0.743c0.138,0.176,0.358,0.264,0.661,0.264c0.211,0,0.425-0.047,0.641-0.143
		c0.217-0.095,0.43-0.215,0.638-0.357L142.358,49.918z"/>
	<path fill="#418CBD" d="M147.182,49.905h-0.038c-0.101-0.026-0.196-0.047-0.283-0.059c-0.088-0.013-0.193-0.02-0.317-0.02
		c-0.238,0-0.476,0.058-0.709,0.174c-0.235,0.115-0.46,0.255-0.676,0.416l-0.689,3.233h-0.723l0.971-4.552h0.723l-0.143,0.672
		c0.337-0.252,0.623-0.428,0.857-0.524c0.235-0.1,0.46-0.147,0.677-0.147c0.125,0,0.215,0.003,0.271,0.009
		c0.055,0.008,0.137,0.021,0.244,0.039L147.182,49.905z"/>
	<path fill="#418CBD" d="M149.845,53.165c-0.067,0.045-0.161,0.106-0.279,0.187c-0.118,0.079-0.238,0.147-0.36,0.205
		c-0.129,0.063-0.273,0.115-0.434,0.156c-0.16,0.043-0.345,0.063-0.553,0.063c-0.338,0-0.611-0.104-0.822-0.316
		c-0.211-0.209-0.316-0.484-0.316-0.824c0-0.36,0.074-0.667,0.224-0.915c0.147-0.248,0.367-0.452,0.659-0.608
		c0.287-0.156,0.634-0.268,1.038-0.336c0.405-0.07,0.866-0.112,1.384-0.13c0.018-0.076,0.03-0.142,0.04-0.197
		c0.012-0.056,0.017-0.113,0.017-0.173c0-0.131-0.024-0.236-0.072-0.317c-0.048-0.082-0.117-0.147-0.206-0.196
		s-0.193-0.082-0.311-0.1c-0.118-0.019-0.248-0.027-0.391-0.027c-0.216,0-0.463,0.038-0.739,0.112
		c-0.277,0.075-0.503,0.149-0.676,0.223h-0.038l0.142-0.767c0.145-0.04,0.356-0.087,0.636-0.138
		c0.279-0.052,0.547-0.078,0.804-0.078c0.528,0,0.925,0.089,1.188,0.266c0.264,0.176,0.396,0.456,0.396,0.839
		c0,0.073-0.005,0.151-0.017,0.234c-0.011,0.083-0.025,0.161-0.04,0.233l-0.665,3.09h-0.71L149.845,53.165z M150.261,51.25
		c-0.391,0.016-0.738,0.048-1.042,0.097c-0.304,0.047-0.554,0.115-0.753,0.205c-0.205,0.09-0.36,0.211-0.468,0.365
		c-0.106,0.152-0.16,0.344-0.16,0.572c0,0.195,0.063,0.346,0.187,0.447c0.125,0.104,0.317,0.155,0.579,0.155
		c0.23,0,0.466-0.055,0.706-0.165c0.239-0.11,0.464-0.242,0.672-0.396L150.261,51.25z"/>
	<path fill="#418CBD" d="M158.815,50.105c0,0.09-0.006,0.185-0.017,0.285c-0.012,0.101-0.029,0.202-0.052,0.305l-0.641,2.955h-0.714
		l0.562-2.592c0.029-0.144,0.055-0.277,0.074-0.399c0.019-0.122,0.028-0.236,0.028-0.342c0-0.207-0.049-0.365-0.145-0.478
		c-0.098-0.112-0.281-0.167-0.554-0.167c-0.2,0-0.412,0.06-0.637,0.18c-0.224,0.12-0.445,0.26-0.667,0.419
		c-0.005,0.068-0.014,0.146-0.024,0.232c-0.012,0.088-0.025,0.165-0.04,0.233l-0.627,2.913h-0.716l0.559-2.592
		c0.033-0.169,0.059-0.307,0.08-0.414c0.02-0.107,0.029-0.217,0.029-0.327c0-0.248-0.063-0.417-0.19-0.508s-0.298-0.137-0.515-0.137
		c-0.152,0-0.323,0.041-0.511,0.125c-0.188,0.083-0.438,0.234-0.752,0.454l-0.732,3.398h-0.716l0.982-4.553h0.715l-0.108,0.505
		c0.267-0.197,0.514-0.352,0.741-0.463c0.228-0.112,0.467-0.168,0.719-0.168c0.287,0,0.52,0.065,0.698,0.196
		c0.18,0.13,0.299,0.311,0.356,0.542c0.335-0.262,0.636-0.449,0.902-0.565c0.267-0.114,0.528-0.173,0.787-0.173
		c0.373,0,0.654,0.1,0.842,0.297C158.722,49.468,158.815,49.747,158.815,50.105"/>
	<path fill="#418CBD" d="M166.477,50.105c0,0.09-0.006,0.185-0.017,0.285c-0.012,0.101-0.029,0.202-0.052,0.305l-0.641,2.955h-0.714
		l0.561-2.592c0.03-0.144,0.056-0.277,0.074-0.399c0.02-0.122,0.029-0.236,0.029-0.342c0-0.207-0.049-0.365-0.145-0.478
		c-0.098-0.112-0.281-0.167-0.554-0.167c-0.201,0-0.413,0.06-0.637,0.18s-0.446,0.26-0.667,0.419
		c-0.005,0.068-0.014,0.146-0.025,0.232c-0.011,0.088-0.024,0.165-0.04,0.233l-0.627,2.913h-0.715l0.559-2.592
		c0.032-0.169,0.059-0.307,0.079-0.414s0.03-0.217,0.03-0.327c0-0.248-0.063-0.417-0.19-0.508s-0.299-0.137-0.516-0.137
		c-0.151,0-0.322,0.041-0.51,0.125c-0.189,0.083-0.439,0.234-0.752,0.454l-0.733,3.398h-0.715l0.982-4.553h0.715l-0.109,0.505
		c0.268-0.197,0.515-0.352,0.742-0.463c0.228-0.112,0.466-0.168,0.718-0.168c0.286,0,0.521,0.065,0.699,0.196
		c0.179,0.13,0.298,0.311,0.356,0.542c0.335-0.262,0.636-0.449,0.901-0.565c0.268-0.114,0.529-0.173,0.788-0.173
		c0.373,0,0.654,0.1,0.841,0.297C166.383,49.468,166.477,49.747,166.477,50.105"/>
	<path fill="#418CBD" d="M168.927,49.099l-0.982,4.552h-0.716l0.983-4.552H168.927z M169.315,47.541l-0.172,0.796h-0.811
		l0.173-0.796H169.315z"/>
	<path fill="#418CBD" d="M173.693,50.138c0,0.065-0.006,0.154-0.017,0.264c-0.013,0.113-0.027,0.21-0.047,0.295l-0.639,2.954h-0.713
		l0.556-2.592c0.03-0.144,0.055-0.27,0.07-0.377c0.017-0.107,0.025-0.213,0.025-0.319c0-0.229-0.054-0.399-0.159-0.516
		c-0.105-0.115-0.295-0.174-0.57-0.174c-0.192,0-0.406,0.057-0.639,0.172c-0.233,0.113-0.46,0.25-0.682,0.409l-0.733,3.396h-0.715
		l0.982-4.552h0.716l-0.109,0.505c0.271-0.204,0.525-0.359,0.764-0.468c0.237-0.109,0.481-0.163,0.733-0.163
		c0.37,0,0.659,0.1,0.866,0.299C173.591,49.472,173.693,49.76,173.693,50.138"/>
	<path fill="#418CBD" d="M178.856,49.098l-0.866,4.047c-0.167,0.772-0.441,1.337-0.823,1.694c-0.382,0.356-0.912,0.535-1.592,0.535
		c-0.218,0-0.438-0.018-0.66-0.053c-0.222-0.036-0.426-0.083-0.61-0.143l0.164-0.762h0.038c0.142,0.067,0.334,0.132,0.574,0.196
		c0.241,0.062,0.47,0.093,0.683,0.093c0.241,0,0.445-0.033,0.614-0.1c0.17-0.066,0.309-0.157,0.418-0.271
		c0.105-0.115,0.193-0.248,0.261-0.398c0.066-0.15,0.12-0.32,0.158-0.507l0.086-0.399c-0.258,0.184-0.482,0.322-0.679,0.413
		c-0.194,0.091-0.444,0.137-0.749,0.137c-0.414,0-0.737-0.135-0.971-0.405s-0.35-0.652-0.35-1.143c0-0.395,0.06-0.777,0.181-1.148
		c0.12-0.37,0.289-0.7,0.505-0.988c0.21-0.278,0.464-0.503,0.76-0.672c0.296-0.168,0.612-0.253,0.95-0.253
		c0.244,0,0.462,0.03,0.654,0.09c0.191,0.061,0.358,0.138,0.501,0.232l0.089-0.196H178.856z M177.97,49.918
		c-0.163-0.091-0.33-0.16-0.502-0.21s-0.346-0.077-0.521-0.077c-0.249,0-0.476,0.062-0.681,0.184
		c-0.204,0.12-0.381,0.288-0.528,0.502c-0.14,0.201-0.249,0.444-0.326,0.728c-0.078,0.284-0.115,0.567-0.115,0.85
		c0,0.321,0.067,0.57,0.204,0.743c0.139,0.176,0.358,0.264,0.661,0.264c0.211,0,0.425-0.047,0.642-0.143
		c0.216-0.095,0.429-0.215,0.638-0.357L177.97,49.918z"/>
	<path fill="#418CBD" d="M183.874,49.099l-0.982,4.552h-0.715l0.982-4.552H183.874z M184.264,47.541l-0.172,0.796h-0.812
		l0.173-0.796H184.264z"/>
	<path fill="#418CBD" d="M189.199,47.31l-1.369,6.341h-0.717l0.104-0.478c-0.322,0.237-0.582,0.396-0.778,0.479
		c-0.197,0.083-0.411,0.125-0.642,0.125c-0.402,0-0.72-0.137-0.954-0.408c-0.235-0.271-0.354-0.667-0.354-1.186
		c0-0.438,0.064-0.852,0.191-1.241s0.299-0.731,0.518-1.024c0.216-0.291,0.471-0.522,0.766-0.69
		c0.294-0.171,0.606-0.255,0.937-0.255c0.227,0,0.435,0.025,0.624,0.076c0.191,0.052,0.368,0.131,0.533,0.232l0.426-1.972H189.199z
		 M187.921,49.918c-0.17-0.096-0.337-0.166-0.501-0.211c-0.163-0.045-0.338-0.067-0.523-0.067c-0.264,0-0.5,0.069-0.706,0.205
		c-0.207,0.136-0.384,0.321-0.531,0.557c-0.135,0.216-0.238,0.474-0.311,0.775s-0.108,0.594-0.108,0.876
		c0,0.332,0.066,0.584,0.199,0.76c0.134,0.176,0.351,0.264,0.649,0.264c0.213,0,0.431-0.058,0.652-0.171
		c0.223-0.114,0.428-0.239,0.614-0.374L187.921,49.918z"/>
	<path fill="#418CBD" d="M191.322,53.756c-0.589,0-1.05-0.147-1.385-0.443c-0.335-0.297-0.502-0.73-0.502-1.301
		c0-0.834,0.246-1.549,0.738-2.146c0.491-0.597,1.101-0.894,1.825-0.894c0.482,0,0.852,0.127,1.108,0.385
		c0.256,0.256,0.384,0.617,0.384,1.082c0,0.081-0.011,0.211-0.033,0.387c-0.021,0.178-0.056,0.382-0.104,0.616h-3.135
		c-0.016,0.077-0.026,0.155-0.032,0.23c-0.006,0.077-0.01,0.147-0.01,0.213c0,0.383,0.109,0.685,0.328,0.902
		c0.218,0.22,0.527,0.328,0.929,0.328c0.28,0,0.566-0.059,0.863-0.175c0.296-0.117,0.544-0.249,0.743-0.395h0.042l-0.155,0.826
		c-0.126,0.05-0.241,0.094-0.343,0.135c-0.102,0.04-0.23,0.082-0.388,0.123c-0.157,0.04-0.297,0.071-0.419,0.093
		C191.657,53.746,191.506,53.756,191.322,53.756 M192.753,50.879c0.013-0.079,0.021-0.145,0.026-0.199
		c0.005-0.054,0.007-0.114,0.007-0.179c0-0.291-0.073-0.519-0.222-0.682c-0.149-0.163-0.387-0.244-0.715-0.244
		c-0.36,0-0.68,0.12-0.96,0.358c-0.279,0.239-0.468,0.554-0.567,0.945H192.753z"/>
	<path fill="#418CBD" d="M196.727,53.165c-0.068,0.045-0.162,0.106-0.28,0.187c-0.118,0.079-0.238,0.147-0.36,0.205
		c-0.129,0.063-0.273,0.115-0.434,0.156c-0.16,0.043-0.344,0.063-0.552,0.063c-0.338,0-0.612-0.104-0.823-0.316
		c-0.211-0.209-0.316-0.484-0.316-0.824c0-0.36,0.074-0.667,0.224-0.915c0.147-0.248,0.367-0.452,0.659-0.608
		c0.287-0.156,0.634-0.268,1.038-0.336c0.405-0.07,0.866-0.112,1.385-0.13c0.017-0.076,0.029-0.142,0.039-0.197
		c0.012-0.056,0.017-0.113,0.017-0.173c0-0.131-0.024-0.236-0.072-0.317c-0.048-0.082-0.117-0.147-0.206-0.196
		s-0.192-0.082-0.311-0.1c-0.118-0.019-0.248-0.027-0.391-0.027c-0.216,0-0.463,0.038-0.739,0.112
		c-0.277,0.075-0.502,0.149-0.676,0.223h-0.037l0.141-0.767c0.145-0.04,0.356-0.087,0.636-0.138
		c0.279-0.052,0.547-0.078,0.805-0.078c0.527,0,0.924,0.089,1.188,0.266c0.264,0.176,0.396,0.456,0.396,0.839
		c0,0.073-0.006,0.151-0.018,0.234c-0.011,0.083-0.025,0.161-0.04,0.233l-0.665,3.09h-0.71L196.727,53.165z M197.143,51.25
		c-0.392,0.016-0.739,0.048-1.042,0.097c-0.305,0.047-0.555,0.115-0.754,0.205c-0.204,0.09-0.36,0.211-0.468,0.365
		c-0.106,0.152-0.16,0.344-0.16,0.572c0,0.195,0.063,0.346,0.187,0.447c0.125,0.104,0.318,0.155,0.579,0.155
		c0.23,0,0.466-0.055,0.706-0.165s0.464-0.242,0.672-0.396L197.143,51.25z"/>
	<path fill="#418CBD" d="M200.11,53.76c-0.318,0-0.602-0.041-0.852-0.125c-0.25-0.086-0.459-0.176-0.627-0.274l0.16-0.819h0.038
		c0.053,0.05,0.123,0.107,0.208,0.174s0.193,0.133,0.326,0.197c0.119,0.063,0.255,0.116,0.409,0.161
		c0.152,0.045,0.317,0.067,0.492,0.067c0.358,0,0.639-0.07,0.843-0.212c0.203-0.142,0.304-0.349,0.304-0.622
		c0-0.145-0.052-0.256-0.156-0.334c-0.104-0.076-0.254-0.14-0.449-0.188c-0.099-0.025-0.218-0.052-0.355-0.082
		c-0.139-0.029-0.279-0.065-0.421-0.105c-0.297-0.09-0.518-0.22-0.659-0.39s-0.213-0.376-0.213-0.622
		c0-0.212,0.043-0.409,0.129-0.595c0.086-0.184,0.215-0.354,0.385-0.509c0.162-0.146,0.369-0.266,0.621-0.356
		c0.251-0.091,0.53-0.137,0.838-0.137c0.253,0,0.507,0.034,0.759,0.103c0.254,0.067,0.459,0.152,0.619,0.251l-0.151,0.783h-0.038
		c-0.041-0.035-0.103-0.083-0.186-0.143c-0.082-0.06-0.187-0.12-0.313-0.184c-0.109-0.051-0.237-0.097-0.383-0.134
		c-0.146-0.038-0.299-0.058-0.455-0.058c-0.317,0-0.575,0.072-0.773,0.215c-0.198,0.142-0.297,0.338-0.297,0.584
		c0,0.137,0.048,0.25,0.144,0.341c0.098,0.091,0.244,0.161,0.442,0.214c0.125,0.032,0.255,0.063,0.391,0.091
		c0.137,0.029,0.268,0.061,0.395,0.092c0.294,0.079,0.516,0.202,0.664,0.367c0.148,0.166,0.223,0.374,0.223,0.624
		c0,0.209-0.046,0.413-0.139,0.613c-0.092,0.199-0.227,0.373-0.402,0.519c-0.18,0.155-0.397,0.276-0.655,0.363
		C200.718,53.717,200.43,53.76,200.11,53.76"/>
	<path fill="#418CBD" d="M82.496,27.872c0,2.234-0.515,4.235-1.544,6.002c-1.028,1.768-2.328,3.124-3.9,4.069
		c-1.312,0.807-2.739,1.325-4.282,1.556c-1.543,0.231-3.186,0.347-4.927,0.347h-7.903V15.85h7.835c1.776,0,3.438,0.107,4.987,0.322
		c1.548,0.215,3.001,0.736,4.358,1.563c1.661,1.011,2.974,2.371,3.935,4.085C82.016,23.535,82.496,25.551,82.496,27.872
		 M75.983,27.823c0-1.579-0.286-2.93-0.856-4.054c-0.571-1.122-1.45-2.001-2.638-2.634c-0.858-0.451-1.761-0.699-2.705-0.742
		c-0.943-0.042-2.071-0.063-3.383-0.063h-0.119v15.02h0.119c1.425,0,2.626-0.024,3.604-0.072c0.978-0.049,1.908-0.336,2.789-0.863
		c1.041-0.623,1.832-1.481,2.375-2.578C75.713,30.74,75.983,29.402,75.983,27.823"/>
	<path fill="#418CBD" d="M118.704,19.025h-0.458c-0.227-0.065-0.579-0.148-1.061-0.252c-0.48-0.101-0.935-0.15-1.365-0.15
		c-1.198,0-2.016,0.208-2.45,0.628c-0.436,0.418-0.653,1.203-0.653,2.352v0.146h4.715v3.932h-4.511v14.166h-5.937V25.68h-2.374
		v-3.932h2.374v-0.5c0-2.213,0.611-3.872,1.832-4.979c1.222-1.106,3.069-1.659,5.546-1.659c0.859,0,1.661,0.029,2.408,0.089
		c0.746,0.058,1.391,0.137,1.934,0.232V19.025z"/>
	<path fill="#418CBD" d="M128.832,40.199c-2.419,0-4.18-0.473-5.283-1.417c-1.102-0.946-1.652-2.493-1.652-4.642V25.68h-2.273
		v-3.932h2.273v-5.173h5.935v5.173h5.716v3.932h-5.716v6.415c0,0.633,0.006,1.187,0.018,1.659c0.012,0.474,0.102,0.896,0.271,1.273
		c0.158,0.375,0.438,0.675,0.839,0.894c0.401,0.22,0.987,0.331,1.756,0.331c0.316,0,0.731-0.065,1.246-0.193
		c0.515-0.129,0.873-0.247,1.077-0.355h0.509v3.98c-0.645,0.162-1.329,0.288-2.052,0.379
		C130.771,40.153,129.883,40.199,128.832,40.199"/>
	<path fill="#418CBD" d="M141.772,40.345c-1.402,0-2.729-0.146-3.978-0.435c-1.249-0.291-2.281-0.629-3.095-1.017v-4.77h0.492
		c0.281,0.204,0.604,0.431,0.967,0.678c0.361,0.247,0.864,0.505,1.509,0.772c0.554,0.248,1.179,0.46,1.874,0.637
		c0.695,0.179,1.45,0.267,2.264,0.267c0.837,0,1.574-0.124,2.213-0.371c0.64-0.247,0.958-0.639,0.958-1.176
		c0-0.419-0.146-0.736-0.44-0.951s-0.864-0.419-1.713-0.612c-0.452-0.107-1.023-0.224-1.712-0.347
		c-0.69-0.124-1.302-0.266-1.832-0.428c-1.492-0.439-2.614-1.093-3.366-1.957c-0.752-0.865-1.128-2.001-1.128-3.409
		c0-0.805,0.195-1.564,0.585-2.28c0.39-0.715,0.964-1.35,1.721-1.909c0.758-0.548,1.693-0.982,2.808-1.306
		c1.112-0.322,2.37-0.482,3.773-0.482c1.333,0,2.561,0.126,3.68,0.378s2.063,0.556,2.832,0.91v4.577h-0.475
		c-0.204-0.149-0.526-0.353-0.967-0.604c-0.441-0.252-0.87-0.47-1.289-0.653c-0.497-0.214-1.054-0.391-1.67-0.53
		c-0.617-0.141-1.247-0.211-1.892-0.211c-0.858,0-1.586,0.141-2.179,0.42c-0.594,0.279-0.891,0.65-0.891,1.111
		c0,0.409,0.146,0.731,0.44,0.968s0.934,0.467,1.917,0.692c0.509,0.119,1.095,0.234,1.755,0.347c0.661,0.113,1.298,0.266,1.908,0.46
		c1.368,0.418,2.405,1.033,3.112,1.844c0.706,0.812,1.06,1.89,1.06,3.232c0,0.848-0.21,1.657-0.628,2.425s-1.012,1.416-1.779,1.941
		c-0.814,0.571-1.773,1.011-2.875,1.321C144.63,40.188,143.31,40.345,141.772,40.345"/>
	<path fill="#418CBD" d="M172.129,30.806c0,2.976-0.856,5.319-2.569,7.033s-4.135,2.57-7.267,2.57c-3.109,0-5.526-0.856-7.25-2.57
		c-1.725-1.714-2.586-4.058-2.586-7.033c0-3.008,0.861-5.364,2.586-7.067c1.724-1.703,4.141-2.555,7.25-2.555
		c3.121,0,5.54,0.856,7.259,2.57C171.27,25.468,172.129,27.818,172.129,30.806 M166.041,30.837c0-1.074-0.094-1.969-0.28-2.683
		c-0.186-0.715-0.444-1.287-0.771-1.717c-0.351-0.452-0.746-0.766-1.188-0.943c-0.441-0.177-0.944-0.265-1.509-0.265
		c-0.531,0-1.013,0.077-1.442,0.233c-0.429,0.156-0.825,0.453-1.187,0.894c-0.339,0.419-0.61,0.995-0.814,1.725
		c-0.203,0.731-0.305,1.649-0.305,2.756s0.096,2.001,0.288,2.684c0.192,0.682,0.44,1.228,0.747,1.636
		c0.315,0.419,0.712,0.725,1.187,0.918s1,0.29,1.577,0.29c0.475,0,0.958-0.097,1.45-0.29s0.884-0.483,1.179-0.871
		c0.35-0.461,0.616-1.018,0.797-1.666C165.95,32.886,166.041,31.986,166.041,30.837"/>
	<path fill="#418CBD" d="M187.46,19.025h-0.458c-0.226-0.065-0.579-0.148-1.06-0.252c-0.481-0.101-0.937-0.15-1.365-0.15
		c-1.199,0-2.016,0.208-2.451,0.628c-0.435,0.418-0.652,1.203-0.652,2.352v0.146h4.715v3.932h-4.512v14.166h-5.936V25.68h-2.374
		v-3.932h2.374v-0.5c0-2.213,0.611-3.872,1.832-4.979c1.221-1.106,3.069-1.659,5.545-1.659c0.86,0,1.662,0.029,2.409,0.089
		c0.746,0.058,1.39,0.137,1.933,0.232V19.025z"/>
	<path fill="#418CBD" d="M197.588,40.199c-2.419,0-4.18-0.473-5.282-1.417c-1.103-0.946-1.653-2.493-1.653-4.642V25.68h-2.273
		v-3.932h2.273v-5.173h5.935v5.173h5.717v3.932h-5.717v6.415c0,0.633,0.006,1.187,0.019,1.659c0.011,0.474,0.101,0.896,0.271,1.273
		c0.158,0.375,0.438,0.675,0.839,0.894c0.401,0.22,0.987,0.331,1.757,0.331c0.315,0,0.73-0.065,1.246-0.193
		c0.514-0.129,0.872-0.247,1.076-0.355h0.51v3.98c-0.646,0.162-1.329,0.288-2.053,0.379S198.64,40.199,197.588,40.199"/>
	<path fill="#418CBD" d="M98.521,39.219c-3.095,1.388-5.764,1.7-8.004,0.934c-2.239-0.767-3.905-2.541-4.996-5.325
		c-1.067-2.725-1.15-5.244-0.249-7.559c0.9-2.315,2.733-4.093,5.499-5.333c2.511-1.126,4.669-1.285,6.475-0.476
		c1.806,0.809,3.21,2.496,4.215,5.063l0.734,1.872L90.995,33.42c0.352,0.751,0.766,1.326,1.241,1.724
		c0.477,0.398,0.999,0.649,1.567,0.756c0.559,0.111,1.155,0.103,1.793-0.026c0.636-0.128,1.3-0.348,1.99-0.658
		c0.595-0.267,1.151-0.594,1.675-0.986c0.521-0.391,0.978-0.802,1.369-1.234c0.346-0.375,0.652-0.752,0.923-1.13
		c0.27-0.378,0.483-0.7,0.642-0.97l0.54-0.243l1.683,4.297c-0.353,0.354-0.674,0.684-0.963,0.98c-0.289,0.3-0.707,0.659-1.252,1.078
		c-0.497,0.398-1.022,0.771-1.579,1.119C100.068,38.475,99.367,38.839,98.521,39.219 M95.929,27.52
		c-0.46-1.086-1.039-1.811-1.736-2.174c-0.698-0.363-1.533-0.326-2.506,0.11c-0.993,0.446-1.651,1.097-1.975,1.952
		c-0.322,0.855-0.31,1.816,0.04,2.883L95.929,27.52z"/>
	<path fill="#418CBD" d="M27.804,37.254c-0.46,0.354-0.887,0.658-1.228,0.868c-1.272,0.78-5.875,3.609-7.774,4.652l-0.159,0.087
		L7.737,20.245l0.158-0.088c1.748-0.96,6.163-3.464,7.449-4.099c1.286-0.634,3.146-1.115,4.55-1.43
		c1.986-0.444,4.888-0.322,6.735,0.522c1.646,0.751,4.315,3.323,5.326,5.428c0.778,1.621,1.576,3.974,1.763,6.003
		c0.264-0.031,0.532-0.048,0.804-0.048c2.122,0,4.032,0.974,5.359,2.527c0.115-0.53,0.198-1.072,0.241-1.631
		c0.239-3.11-0.159-6.837-1.589-9.815c-1.485-3.094-4.195-5.336-6.572-6.916s-4.995-1.944-7.857-2.072
		c-2.337-0.108-4.606,0.262-6.81,1.109c-2.202,0.849-4.486,1.924-6.852,3.224L0,18.7l15.355,31.983l10.534-5.791
		c2.025-1.113,3.895-2.289,5.606-3.525C29.83,40.548,28.503,39.075,27.804,37.254"/>
	<path fill="#418CBD" d="M34.202,37.515c-0.451,0-0.879-0.051-1.281-0.154c-0.402-0.103-0.735-0.223-0.997-0.358v-1.688h0.157
		c0.092,0.071,0.195,0.152,0.313,0.238c0.116,0.088,0.279,0.179,0.486,0.274c0.179,0.088,0.38,0.163,0.604,0.225
		c0.225,0.063,0.467,0.094,0.73,0.094c0.269,0,0.507-0.042,0.713-0.13s0.309-0.226,0.309-0.416c0-0.149-0.047-0.261-0.142-0.336
		c-0.095-0.076-0.279-0.149-0.552-0.218c-0.146-0.037-0.33-0.079-0.553-0.122s-0.419-0.094-0.59-0.15
		c-0.481-0.156-0.843-0.388-1.086-0.693c-0.242-0.307-0.363-0.707-0.363-1.206c0-0.284,0.063-0.554,0.189-0.807
		c0.125-0.253,0.31-0.478,0.554-0.676c0.245-0.193,0.546-0.348,0.905-0.462c0.359-0.113,0.764-0.171,1.216-0.171
		c0.43,0,0.825,0.046,1.187,0.135c0.36,0.089,0.664,0.196,0.912,0.321v1.62h-0.152c-0.066-0.054-0.17-0.125-0.313-0.215
		c-0.142-0.089-0.279-0.165-0.415-0.23c-0.159-0.076-0.34-0.138-0.538-0.188c-0.198-0.05-0.401-0.074-0.609-0.074
		c-0.277,0-0.511,0.05-0.702,0.149c-0.191,0.098-0.287,0.229-0.287,0.392c0,0.146,0.047,0.259,0.142,0.343
		c0.096,0.084,0.302,0.166,0.618,0.245c0.164,0.042,0.353,0.083,0.565,0.123s0.418,0.094,0.615,0.162
		c0.44,0.148,0.774,0.365,1.003,0.652c0.228,0.288,0.342,0.669,0.342,1.144c0,0.301-0.068,0.586-0.202,0.858
		c-0.135,0.271-0.327,0.5-0.574,0.686c-0.263,0.203-0.57,0.358-0.927,0.469C35.124,37.459,34.697,37.515,34.202,37.515"/>
	<path fill="#418CBD" d="M34.418,27.952c-3.271,0-5.922,2.838-5.922,6.338s2.651,6.336,5.922,6.336c3.271,0,5.922-2.836,5.922-6.336
		S37.689,27.952,34.418,27.952 M34.418,40.048c-2.972,0-5.382-2.578-5.382-5.758c0-3.181,2.41-5.759,5.382-5.759
		S39.8,31.109,39.8,34.29C39.8,37.47,37.39,40.048,34.418,40.048"/>
	<ellipse fill="none" stroke="#418CBD" stroke-miterlimit="10" cx="205.348" cy="12.675" rx="5.233" ry="5.6"/>
	<g>
		<path fill="#418CBD" d="M203.99,10.062c0.354-0.072,0.862-0.113,1.346-0.113c0.749,0,1.232,0.137,1.571,0.443
			c0.273,0.241,0.427,0.612,0.427,1.031c0,0.717-0.451,1.192-1.023,1.386v0.024c0.419,0.145,0.669,0.531,0.798,1.096
			c0.177,0.757,0.306,1.281,0.419,1.49h-0.726c-0.088-0.153-0.209-0.62-0.362-1.297c-0.161-0.749-0.451-1.031-1.088-1.056h-0.66
			v2.353h-0.701V10.062z M204.691,12.535h0.717c0.749,0,1.225-0.411,1.225-1.031c0-0.701-0.508-1.008-1.249-1.016
			c-0.338,0-0.58,0.032-0.692,0.064V12.535z"/>
	</g>
</g>
</svg>
